inDegrees=yes
name=ik_lifting_orientations
DataType=double
version=3
OpenSimVersion=4.5-2024-01-10-34fd6af
endheader
time	pelvis_tilt	pelvis_list	pelvis_rotation	pelvis_tx	pelvis_ty	pelvis_tz	hip_flexion_r	hip_adduction_r	hip_rotation_r	knee_angle_r	knee_angle_r_beta	ankle_angle_r	subtalar_angle_r	mtp_angle_r	hip_flexion_l	hip_adduction_l	hip_rotation_l	knee_angle_l	knee_angle_l_beta	ankle_angle_l	subtalar_angle_l	mtp_angle_l	lumbar_extension	lumbar_bending	lumbar_rotation	arm_flex_r	arm_add_r	arm_rot_r	elbow_flex_r	pro_sup_r	wrist_flex_r	wrist_dev_r	arm_flex_l	arm_add_l	arm_rot_l	elbow_flex_l	pro_sup_l	wrist_flex_l	wrist_dev_l
0.02	-0.008922953531627411	-0.02153415427753346	-90.0036811646799	0	0.9399999998679526	0	44.99032510646753	-11.65891933674219	0	59.99596541529695	1.047127134409579	-5.804286474387717	0	0	44.99032510646753	-11.65891933674219	0	59.99596541529695	1.047127134409579	-5.804286474387717	0	0	-0.03898173080864233	0.01221672071138271	0.02677330322445267	-0.4653440096372046	-0.124048742678571	-0.04095811616193466	1.006711235902346	2.549690782943645	0	0	0	-10.29457151140591	0	87.50082066357093	2.549690782943645	0	0
0.03	-0.001842203919945209	0.008796929889578954	-90.1199486180531	0	0.9399999998679526	0	44.99032802399421	-11.65717595401477	0	59.9959664064598	1.047127151708634	-5.803186260441688	0	0	44.99032802399421	-11.65717595401477	0	59.9959664064598	1.047127151708634	-5.803186260441688	0	0	0.01397275741689112	0.008581936739818084	0.0504775918546523	-0.2437888406808966	-0.07139675723031884	0.03761096244196196	0.4825260810760668	2.549154791981711	0	0	0	-10.29530092158255	0	87.50134598436355	2.549154791981711	0	0
0.04	0.02008443896626233	-0.00338666837956748	-90.17738816694607	0	0.9399999998679526	0	44.99073206601685	-11.44391223547033	0	59.99610433531258	1.047129559021249	-5.6751197009374	0	0	44.99073206601685	-11.44391223547033	0	59.99610433531258	1.047129559021249	-5.6751197009374	0	0	-0.01251505963206359	-0.002359273698828793	0.1089546360646304	-0.1831332204902533	-0.09423405162377006	0.004324586714011756	0.4625437616526847	2.47385389832888	0	0	0	-10.39860537337674	0	87.57514806285577	2.47385389832888	0	0
0.05	0.006411315751748255	-0.01412025740614971	-90.18125772470106	0	0.9399999998679526	0	44.99094117133872	-11.34742589707089	0	59.99617667738856	1.047130821628662	-5.619879684332745	0	0	44.99094117133872	-11.34742589707089	0	59.99617667738856	1.047130821628662	-5.619879684332745	0	0	0.005313293574743799	-0.005658394448702916	0.1094325902023463	-0.268703793540465	-0.08407598032362519	0.007479353537648432	0.5793749282736265	2.434150122263615	0	0	0	-10.4537049651545	0	87.61406169943069	2.434150122263615	0	0
0.06	0.009169175852203436	-0.01935953584424615	-90.17962733883326	0	0.9399999998679526	0	44.9912043187886	-11.22883869274062	0	59.99626793013763	1.047132414289585	-5.552602565779684	0	0	44.9912043187886	-11.22883869274062	0	59.99626793013763	1.047132414289585	-5.552602565779684	0	0	0.04460351384141525	-0.005800731824851831	0.10797563428384	-0.3228197699505367	-0.08648634158636809	0.007175591412389315	0.5857100308680059	2.384027257305422	0	0	0	-10.52339866755604	0	87.66318710122395	2.384027257305422	0	0
0.07000000000000001	0.001743312621903708	0.0008177829445107784	-90.30938770007718	0	0.9399999998679526	0	44.99167990958254	-11.02457454517703	0	59.99643360432244	1.047135305849595	-5.438813665408977	0	0	44.99167990958254	-11.02457454517703	0	59.99643360432244	1.047135305849595	-5.438813665408977	0	0	0.07029758061849763	0.002847750958666309	0.2407174231992859	-0.2569842503620382	-0.07003409176305386	0.006980316609341461	0.4516981749839239	2.292857063588669	0	0	0	-10.65066533718464	0	87.75254306228193	2.292857063588669	0	0
0.08	0.001661634158899459	-0.003188967435596823	-90.48997244203342	0	0.9399999998679526	0	44.99168062903653	-11.02427345354275	0	59.99643386156544	1.047135310339333	-5.438646463369507	0	0	44.99168062903653	-11.02427345354275	0	59.99643386156544	1.047135310339333	-5.438646463369507	0	0	0.0772680386377658	0.006811529061959453	0.297755734682808	-0.2882530567997956	-0.08104630739719572	0.1380701202751787	0.4765756064436247	2.292717841904881	0	0	0	-10.65086127364072	0	87.75267951369169	2.292717841904881	0	0
0.09	0.004050148272286882	-0.01091937459276249	-90.68086502278373	0	0.9399999998679526	0	44.99187033190881	-10.95204503200346	0	59.99650070349843	1.047136476951142	-5.400217834856567	0	0	44.99187033190881	-10.95204503200346	0	59.99650070349843	1.047136476951142	-5.400217834856567	0	0	0.05243265038359396	0.003005062785150326	0.4903119682376231	-0.2508479196782077	-0.07567272760288642	0.128406212210544	0.4514497592399875	2.255768945470927	0	0	0	-10.70294344434229	0	87.78889324290176	2.255768945470927	0	0
0.1	-0.0008411763022692398	0.003227696128441	-90.87198154195094	0	0.9399999998679526	0	44.99187227908965	-10.95125551455121	0	59.99650139302371	1.047136488985628	-5.399785893656719	0	0	44.99187227908965	-10.95125551455121	0	59.99650139302371	1.047136488985628	-5.399785893656719	0	0	0.07662328589367082	0.01009556717934177	0.6885054964834477	-0.2450692674510112	-0.05589447073055957	0.08001263524395487	0.4835163143661226	2.255391698594726	0	0	0	-10.70347408137826	0	87.78926298334829	2.255391698594726	0	0
